<?xml version="1.0" standalone="no"?>
<!DOCTYPE svg PUBLIC "-//W3C//DTD SVG 20010904//EN"
 "http://www.w3.org/TR/2001/REC-SVG-20010904/DTD/svg10.dtd">
<svg version="1.0" xmlns="http://www.w3.org/2000/svg"
 width="1472.000000pt" height="832.000000pt" viewBox="0 0 1472.000000 832.000000"
 preserveAspectRatio="xMidYMid meet">

<g transform="translate(0.000000,832.000000) scale(0.100000,-0.100000)"
fill="#000000" stroke="none">
<path d="M6992 5382 c6 -179 24 -231 113 -319 95 -93 186 -112 272 -56 33 22
39 11 25 -54 -6 -31 -11 -57 -9 -58 1 -2 18 -5 38 -9 l35 -6 58 116 c49 98 70
129 135 194 42 43 103 94 135 115 53 34 206 109 206 101 0 -1 -40 -33 -90 -70
-169 -126 -251 -221 -320 -369 -57 -125 -57 -124 3 -142 64 -19 108 -19 182 1
106 27 188 86 245 174 17 27 44 99 65 175 20 72 47 167 61 211 30 102 30 120
2 128 -46 12 -244 6 -303 -9 -173 -45 -328 -173 -392 -323 l-16 -37 -12 52
c-26 115 -106 192 -260 249 -38 14 -94 37 -124 50 l-53 24 4 -138z m345 -252
c63 -58 65 -61 28 -42 -48 24 -125 104 -125 129 0 15 2 14 15 -4 8 -11 45 -49
82 -83z"/>
<path d="M7315 4770 c-164 -18 -288 -141 -302 -301 -3 -31 0 -81 7 -110 35
-149 123 -228 330 -296 140 -47 180 -77 180 -140 0 -46 -18 -79 -54 -98 -49
-27 -180 -17 -269 20 l-67 29 -27 -20 c-38 -29 -94 -132 -91 -169 8 -86 279
-151 467 -111 96 20 153 48 206 103 67 68 89 122 93 228 8 203 -73 295 -343
394 -115 42 -158 74 -171 126 -25 102 100 145 273 94 39 -12 79 -19 88 -15 21
8 53 82 61 139 6 44 5 47 -26 66 -73 44 -241 73 -355 61z"/>
<path d="M3777 4738 c-13 -13 -50 -97 -84 -188 -351 -940 -348 -932 -340 -954
6 -16 19 -17 117 -14 68 2 114 8 121 15 7 7 31 68 54 135 l42 123 214 3 214 2
44 -130 c50 -153 46 -150 182 -150 91 0 129 10 129 34 0 12 -114 333 -267 746
-41 113 -88 243 -104 289 -16 46 -34 90 -40 97 -9 11 -42 14 -136 14 -115 0
-125 -2 -146 -22z m177 -390 c21 -68 48 -153 61 -190 l23 -68 -130 0 c-74 0
-128 4 -126 9 2 5 30 91 63 190 33 99 63 181 66 181 3 0 22 -55 43 -122z"/>
<path d="M10891 4746 c-9 -11 -11 -132 -9 -473 l3 -458 31 -65 c66 -140 180
-198 355 -183 100 9 99 8 99 122 0 67 -4 102 -12 109 -7 5 -43 10 -80 10 -132
-1 -148 29 -148 282 l0 180 104 0 c133 0 136 2 136 115 0 110 -7 115 -142 115
l-98 0 0 111 c0 61 -5 119 -10 130 -10 17 -22 19 -114 19 -77 0 -107 -4 -115
-14z"/>
<path d="M4777 4500 c-104 -27 -215 -113 -265 -208 -163 -305 15 -693 325
-710 79 -5 155 15 191 48 12 11 24 20 27 20 13 0 3 -99 -14 -135 -40 -90 -125
-121 -250 -92 -35 8 -70 13 -77 10 -18 -7 -64 -103 -67 -138 -4 -60 117 -108
267 -106 151 1 256 48 323 145 62 91 63 98 63 641 0 369 -3 494 -12 503 -8 8
-46 12 -105 12 -79 0 -96 -3 -109 -19 -16 -18 -18 -18 -70 6 -60 27 -166 38
-227 23z m191 -241 c66 -33 86 -83 86 -219 0 -134 -17 -174 -87 -209 -45 -22
-52 -23 -104 -11 -40 9 -65 22 -92 49 -44 44 -61 96 -61 189 0 168 124 265
258 201z"/>
<path d="M6385 4491 c-223 -55 -372 -264 -351 -493 24 -268 247 -458 508 -434
193 18 357 157 408 346 29 109 6 272 -53 373 -60 102 -202 197 -323 217 -78
13 -106 12 -189 -9z m211 -241 c157 -67 156 -354 -1 -430 -66 -32 -158 -26
-216 15 -152 108 -115 384 56 430 56 15 101 11 161 -15z"/>
<path d="M8267 4496 c-27 -7 -69 -27 -93 -44 l-44 -31 -6 25 c-9 36 -33 44
-123 44 -68 0 -82 -3 -90 -18 -12 -22 -9 -861 3 -880 5 -8 43 -12 116 -12 98
0 110 2 120 19 6 12 10 125 10 296 0 305 4 331 59 359 59 31 136 12 159 -39 8
-18 12 -113 12 -320 0 -343 -11 -315 125 -315 136 0 125 -25 125 297 0 355 7
381 108 391 67 6 108 -16 121 -66 7 -21 11 -154 11 -317 0 -205 3 -284 12
-293 13 -13 183 -17 212 -6 14 5 16 44 16 329 0 293 -2 329 -20 387 -24 78
-69 133 -141 173 -49 27 -63 30 -139 29 -94 -1 -131 -13 -202 -67 l-44 -34
-29 28 c-63 64 -183 92 -278 65z"/>
<path d="M5814 4490 c-43 -10 -99 -45 -122 -77 l-19 -26 -7 45 c-4 27 -13 49
-22 52 -29 11 -180 6 -192 -6 -17 -17 -17 -869 0 -886 17 -17 199 -16 221 1
14 10 17 44 19 272 3 237 5 263 23 299 34 68 62 81 170 80 l93 0 6 35 c3 20 6
73 6 118 0 71 -3 84 -19 93 -22 11 -110 12 -157 0z"/>
<path d="M9492 4484 c-89 -23 -195 -88 -214 -129 -9 -20 -6 -32 16 -69 39 -66
48 -69 139 -35 138 51 311 35 348 -33 19 -35 28 -108 14 -108 -7 0 -38 9 -71
21 -81 29 -217 29 -294 0 -117 -44 -183 -134 -184 -251 -2 -159 80 -266 236
-306 105 -27 233 3 300 70 l26 27 7 -33 c4 -18 12 -39 17 -45 15 -19 202 -18
217 1 8 10 11 135 11 439 -1 369 -3 428 -16 442 -21 21 -161 21 -191 0 -20
-14 -28 -14 -82 5 -72 24 -199 26 -279 4z m245 -530 c45 -33 57 -66 39 -108
-38 -92 -228 -100 -270 -12 -24 51 -20 83 14 118 30 29 33 30 110 27 60 -3 85
-9 107 -25z"/>
<path d="M10590 4490 c-65 -8 -110 -30 -138 -65 -26 -33 -32 -32 -32 8 0 18
-5 38 -12 45 -14 14 -165 16 -186 3 -19 -11 -18 -881 1 -893 20 -13 201 -9
220 5 14 10 17 45 19 287 3 243 5 279 21 308 27 50 74 66 175 59 l82 -6 0 118
c0 117 0 118 -25 129 -28 13 -41 13 -125 2z"/>
<path d="M7290 3464 c-166 -49 -272 -141 -320 -277 -10 -28 -26 -108 -35 -177
-8 -69 -20 -143 -26 -164 -14 -52 -3 -58 97 -52 157 11 284 70 377 177 83 94
147 247 147 352 0 48 -22 117 -37 117 -7 0 -87 -97 -138 -165 -14 -20 -14 -20
-15 0 0 11 22 64 48 118 l48 97 -31 -1 c-16 0 -68 -11 -115 -25z m-167 -527
c-11 -18 -73 -71 -100 -86 -48 -25 -55 -9 -8 18 28 17 64 41 80 55 35 29 39
31 28 13z"/>
</g>
</svg>
